<?xml version="1.0" standalone="yes"?>

<svg version="1.1" viewBox="0.0 0.0 664.49343832021 107.97112860892389" fill="none" stroke="none" stroke-linecap="square" stroke-miterlimit="10" xmlns="http://www.w3.org/2000/svg" xmlns:xlink="http://www.w3.org/1999/xlink"><clipPath id="p.0"><path d="m0 0l664.4934 0l0 107.97113l-664.4934 0l0 -107.97113z" clip-rule="nonzero"></path></clipPath><g clip-path="url(#p.0)"><path fill="#000000" fill-opacity="0.0" d="m0 0l664.4934 0l0 107.97113l-664.4934 0z" fill-rule="evenodd"></path><path fill="#000000" fill-opacity="0.0" d="m34.408863 95.27034c-4.0542755 0 -7.3409157 -3.2866364 -7.3409157 -7.340912l0 -29.365417c0 -4.0542755 -3.2866383 -7.340912 -7.340914 -7.340912c4.0542755 0 7.340914 -3.2866402 7.340914 -7.3409157l0 -29.365417l0 0c0 -4.0542746 3.2866402 -7.3409133 7.3409157 -7.3409133l595.6757 0c1.9468994 0 3.814087 0.7734151 5.190796 2.150104c1.376709 1.376688 2.1500854 3.2438784 2.1500854 5.1908092l0 29.365417c0 4.0542755 3.2866821 7.3409157 7.3409424 7.3409157c-4.0542603 0 -7.3409424 3.2866364 -7.3409424 7.340912l0 29.365417c0 4.0542755 -3.286621 7.340912 -7.3408813 7.340912z" fill-rule="evenodd"></path><path fill="#000000" fill-opacity="0.0" d="m34.408863 95.27034c-4.0542755 0 -7.3409157 -3.2866364 -7.3409157 -7.340912l0 -29.365417c0 -4.0542755 -3.2866383 -7.340912 -7.340914 -7.340912c4.0542755 0 7.340914 -3.2866402 7.340914 -7.3409157l0 -29.365417l0 0c0 -4.0542746 3.2866402 -7.3409133 7.3409157 -7.3409133m595.6757 0c1.9468994 0 3.814087 0.7734151 5.190796 2.150104c1.376709 1.376688 2.1500854 3.2438784 2.1500854 5.1908092l0 29.365417c0 4.0542755 3.2866821 7.3409157 7.3409424 7.3409157c-4.0542603 0 -7.3409424 3.2866364 -7.3409424 7.340912l0 29.365417c0 4.0542755 -3.286621 7.340912 -7.3408813 7.340912" fill-rule="evenodd"></path><path stroke="#000000" stroke-width="1.0" stroke-linejoin="round" stroke-linecap="butt" d="m34.408863 95.27034c-4.0542755 0 -7.3409157 -3.2866364 -7.3409157 -7.340912l0 -29.365417c0 -4.0542755 -3.2866383 -7.340912 -7.340914 -7.340912c4.0542755 0 7.340914 -3.2866402 7.340914 -7.3409157l0 -29.365417l0 0c0 -4.0542746 3.2866402 -7.3409133 7.3409157 -7.3409133m595.6757 0c1.9468994 0 3.814087 0.7734151 5.190796 2.150104c1.376709 1.376688 2.1500854 3.2438784 2.1500854 5.1908092l0 29.365417c0 4.0542755 3.2866821 7.3409157 7.3409424 7.3409157c-4.0542603 0 -7.3409424 3.2866364 -7.3409424 7.340912l0 29.365417c0 4.0542755 -3.286621 7.340912 -7.3408813 7.340912" fill-rule="evenodd"></path><path fill="#000000" fill-opacity="0.0" d="m-150.55643 -0.78608924l960.0 0l0 109.543304l-960.0 0z" fill-rule="evenodd"></path><path fill="#5bc6c3" d="m52.88107 59.27891l-12.1875 7.937504l-0.375 0q-0.625 0 -1.21875 -0.3125q-0.59375 -0.3125 -0.59375 -1.0625q0 -0.5 0.28125 -0.90625q0.28125 -0.40625 0.71875 -0.71875q0.5 -0.3750038 1.8125 -1.1250038q1.3125 -0.75 2.75 -1.65625q1.4375 -0.90625 2.78125 -1.65625q1.34375 -0.75 1.84375 -1.0625q0.25 -0.25 0.75 -0.59375q0.5 -0.34375 0.90625 -0.6875q0.40625 -0.34375 0.71875 -0.59375q0.3125 -0.25 0.3125 -0.3125l-4.8125 -9.75q-0.3125 -0.4375 -0.34375 -0.71875q-0.03125 -0.28125 -0.03125 -0.78125q0 -1.875 1.8125 -1.875q0.25 0 1.15625 0.34375q0.90625 0.34375 2.21875 0.9375q1.3125 0.59375 2.75 1.28125q1.4375 0.6875 2.625 1.25q1.1875 0.5625 2.0 0.96875q0.8125 0.40625 0.8125 0.40625l5.562504 -5.75q0.1875 -0.75 1.09375 -1.8125q0.90625 -1.0625 1.90625 -2.25q1.0 -1.1875 1.75 -2.40625q0.75 -1.21875 0.75 -2.21875l0 -0.1875l-4.3125 -10.062498q-0.625 -1.4375 -0.78125 -3.09375q-0.15625 -1.65625 -0.15625 -3.28125q0 -1.375 0.4375 -2.78125q0.4375 -1.40625 1.28125 -2.53125q0.84375 -1.125 2.03125 -1.84375q1.1875 -0.71875 2.8125 -0.71875q1.6875 0 2.78125 0.96875q1.09375 0.96875 1.75 2.40625q0.65625 1.4375 0.90625 3.03125q0.25 1.59375 0.25 2.90625q0 3.75 -0.84375 7.15625q-0.84375 3.40625 -2.28125 6.968748l0 0.875q1.4375 2.6875 2.9375 5.5625q1.5 2.875 2.6875 5.96875q1.1875 3.09375 1.9375 6.1875q0.75 3.09375 0.75 6.21875q0 2.4375 -0.78125 4.53125q-0.78125 2.0937538 -2.21875 3.6562538q-1.4375 1.5625 -3.46875 2.4375q-2.03125 0.875 -4.53125 0.875q-2.8125 0 -5.34375 -0.84375q-2.5312538 -0.84375 -4.875004 -2.25q-2.34375 -1.40625 -4.4375 -3.2187538q-2.09375 -1.8125 -3.90625 -3.8125l-0.375 0zm3.125 -2.125q0 0.0625 0.34375 0.4375q0.34375 0.375 0.8125 0.84375q0.46875 0.46875 0.96875 0.96875q0.5 0.5 0.875 0.8125q0.1875 0.1875 0.65625 0.53125q0.46875 0.34375 0.9375 0.75q0.46875 0.40625 0.875 0.75q0.40625 0.34375 0.53125 0.40625q0.375 0.1875 1.125 0.625q0.75 0.4375 1.5000038 0.8750038q0.75 0.4375 1.4375 0.8125q0.6875 0.375 0.8125 0.4375q1.4375 0.625 2.65625 0.78125q1.21875 0.15625 2.46875 0.15625q1.875 0 3.21875 -0.71875q1.34375 -0.71875 2.21875 -1.9375038q0.875 -1.21875 1.28125 -2.8125q0.40625 -1.59375 0.40625 -3.21875q0 -1.75 -0.28125 -3.625q-0.28125 -1.875 -0.90625 -3.5625l-5.4375 -13.0625l-4.9375 6.9375l-11.562504 12.5625l0 0.25zm-4.875 -8.25q0 0.125 0.09375 0.46875q0.09375 0.34375 0.15625 0.46875q0.25 0.4375 0.65625 1.1875q0.40625 0.75 0.8125 1.40625q0.40625 0.65625 0.6875 1.1875q0.28125 0.53125 0.34375 0.53125l0.25 0q0.1875 0 0.75 -0.53125q0.5625 -0.53125 1.1875 -1.125q0.625 -0.59375 1.125 -1.125q0.5 -0.53125 0.5625 -0.59375l-0.3125 -0.3125l-5.4375 -1.5625l-0.875 0zm17.562504 -31.437498q0 3.5 1.0625 6.34375q1.0625 2.84375 2.6875 5.90625q0.3125 -0.1875 0.5625 -0.78125q0.25 -0.59375 0.4375 -1.3125q0.1875 -0.71875 0.3125 -1.34375q0.125 -0.625 0.1875 -0.75q0 -0.125 0.09375 -0.625q0.09375 -0.5 0.15625 -1.15625q0.0625 -0.65625 0.15625 -1.28125q0.09375 -0.625 0.15625 -0.9375l0 -0.1875q0 -0.25 -0.03125 -1.5625q-0.03125 -1.3125 -0.21875 -2.84375q-0.1875 -1.53125 -0.6875 -2.75q-0.5 -1.21875 -1.5 -1.21875q-1.0 0 -1.6875 0.375q-0.6875 0.375 -1.03125 1.0q-0.34375 0.625 -0.5 1.4375q-0.15625 0.8125 -0.15625 1.6875zm17.0 50.3125q0 -0.1875 0 -0.9375q0 -0.75 0 -1.0q-1.0625 -3.7500038 -0.28125 -7.375004q0.78125 -3.625 2.8125 -6.53125q2.03125 -2.90625 5.1875 -4.875q3.15625 -1.96875 6.90625 -2.40625l1.125 0q1.375 0 2.28125 0.59375q0.90625 0.59375 1.4375 1.53125q0.53125 0.9375 0.75 2.125q0.21875 1.1875 0.21875 2.375q0 1.625 -0.34375 3.15625q-0.34375 1.53125 -0.75 3.09375q-0.40625 1.5625 -0.75 3.09375q-0.34375 1.53125 -0.34375 3.21875l0 0.3750038q0.0625 0.125 0.15625 0.71875q0.09375 0.59375 0.15625 0.71875q0.125 0 0.625 0.03125q0.5 0.03125 0.625 0.03125q0.625 0 1.21875 -0.03125q0.59375 -0.03125 1.21875 -0.28125l11.875 -5.500004q0.0625 0 0.21875 -0.03125q0.15625 -0.03125 0.21875 -0.03125q0.625 0 1.03125 0.375q0.40625 0.375 0.40625 1.0q0 0.3125 -0.03125 0.59375q-0.03125 0.28125 -0.34375 0.53125q-0.4375 0.3125 -1.59375 0.875q-1.15625 0.5625 -2.46875 1.2500038q-1.3125 0.6875 -2.46875 1.3125q-1.15625 0.625 -1.65625 0.8125q-0.875 0.5 -1.9375 0.90625q-1.0625 0.40625 -2.1875 0.78125q-1.125 0.375 -2.21875 0.59375q-1.09375 0.21875 -1.96875 0.21875q-1.375 0 -2.25 -0.46875q-0.875 -0.46875 -1.3125 -1.25q-0.4375 -0.78125 -0.59375 -1.875q-0.15625 -1.09375 -0.03125 -2.2812538q-1.25 1.0000038 -2.6875 2.1250038q-1.4375 1.125 -3.0 2.0625q-1.5625 0.9375 -3.1875 1.625q-1.625 0.6875 -3.3125 0.6875q-0.9375 0 -1.6875 -0.46875q-0.75 -0.46875 -1.0625 -1.46875zm3.375 -1.3125q1.4375 0 3.1875 -0.84375q1.75 -0.84375 3.4375 -2.0937538q1.6875 -1.25 3.0625 -2.65625q1.375 -1.40625 2.125 -2.53125q0.0625 -1.875 0.53125 -3.59375q0.46875 -1.71875 0.46875 -3.53125q0 -0.125 -0.03125 -0.375q-0.03125 -0.25 -0.03125 -0.375q-0.8125 -0.6875 -1.375 -0.8125q-0.5625 -0.125 -1.5 -0.125q-0.125 0 -0.53125 0q-0.40625 0 -0.53125 0.0625q-0.375 0.3125 -1.25 1.15625q-0.875 0.84375 -1.84375 1.84375q-0.96875 1.0 -1.8125 1.875q-0.84375 0.875 -1.15625 1.1875q-0.0625 0 -0.25 0.21875q-0.1875 0.21875 -0.40625 0.53125q-0.21875 0.3125 -0.375 0.59375q-0.15625 0.28125 -0.21875 0.46875l-1.5 7.312504l0 1.6875zm27.9375 -4.250004q1.75 -1.3125 2.59375 -2.5625q0.84375 -1.25 1.34375 -2.5q0.5 -1.25 0.8125 -2.65625q0.3125 -1.40625 1.0 -3.09375q-0.25 -0.4375 -0.28125 -0.78125q-0.03125 -0.34375 -0.03125 -0.84375q0 -0.5 0.15625 -1.1875q0.15625 -0.6875 0.46875 -1.28125q0.3125 -0.59375 0.75 -1.03125q0.4375 -0.4375 1.0625 -0.4375q-0.0625 0.25 0.71875 0.5625q0.78125 0.3125 1.9375 0.6875q1.15625 0.375 2.46875 0.8125q1.3125 0.4375 2.3125 0.9375q1.125 0.625 1.59375 1.34375q0.46875 0.71875 0.46875 2.03125q0 1.1875 -0.28125 2.6875q-0.28125 1.5 -0.5625 3.03125q-0.28125 1.53125 -0.5625 3.0625q-0.28125 1.53125 -0.28125 2.78125l0 1.6250038q-0.0625 0.5625 0.28125 0.59375q0.34375 0.03125 0.65625 0.03125q0.75 0 1.375 -0.25q0.625 -0.25 1.28125 -0.5625q0.65625 -0.3125 1.28125 -0.59375q0.625 -0.28125 1.3125 -0.40625l5.5 -3.3750038q0.25 -0.4375 0.65625 -0.71875q0.40625 -0.28125 0.78125 -0.53125q0.625 -0.375 1.5 -1.0625q0.4375 -0.375 0.9375 -0.75l1.875 0q0.1875 0 0.25 0.375q0.0625 0.375 0.0625 0.5625q0 0.75 -1.0625 1.875q-1.0625 1.125 -2.75 2.3125q-1.6875 1.1875038 -3.75 2.3437538q-2.0625 1.15625 -4.03125 2.09375q-1.96875 0.9375 -3.625 1.5q-1.65625 0.5625 -2.53125 0.5625q-1.125 0 -1.8125 -0.5625q-0.6875 -0.5625 -1.125 -1.375q-0.4375 -0.8125 -0.59375 -1.78125q-0.15625 -0.96875 -0.15625 -1.9062538q0 -0.6875 0.4375 -1.9375q0.4375 -1.25 1.0 -2.5625q0.5625 -1.3125 1.0 -2.5625q0.4375 -1.25 0.4375 -2.0q0 -0.0625 -0.90625 -0.5q-0.90625 -0.4375 -1.96875 -0.96875q-1.0625 -0.53125 -1.96875 -0.9375q-0.90625 -0.40625 -0.90625 -0.46875q-1.375 1.4375 -1.90625 3.0625q-0.53125 1.625 -1.0625 3.375q-0.53125 1.75 -1.5625 3.5q-1.03125 1.75 -3.46875 3.4375038q-0.0625 0 -0.28125 -0.0625q-0.21875 -0.0625 -0.4375 -0.34375q-0.21875 -0.28125 -0.34375 -0.8750038q-0.125 -0.59375 -0.0625 -1.71875zm31.125 5.562504q0 -0.1875 0 -0.9375q0 -0.75 0 -1.0q-1.0625 -3.7500038 -0.28125 -7.375004q0.78125 -3.625 2.8125 -6.53125q2.03125 -2.90625 5.1875 -4.875q3.15625 -1.96875 6.90625 -2.40625l1.125 0q1.375 0 2.28125 0.59375q0.90625 0.59375 1.4375 1.53125q0.53125 0.9375 0.75 2.125q0.21875 1.1875 0.21875 2.375q0 1.625 -0.34375 3.15625q-0.34375 1.53125 -0.75 3.09375q-0.40625 1.5625 -0.75 3.09375q-0.34375 1.53125 -0.34375 3.21875l0 0.3750038q0.0625 0.125 0.15625 0.71875q0.09375 0.59375 0.15625 0.71875q0.125 0 0.625 0.03125q0.5 0.03125 0.625 0.03125q0.625 0 1.21875 -0.03125q0.59375 -0.03125 1.21875 -0.28125l11.875 -5.500004q0.0625 0 0.21875 -0.03125q0.15625 -0.03125 0.21875 -0.03125q0.625 0 1.03125 0.375q0.40625 0.375 0.40625 1.0q0 0.3125 -0.03125 0.59375q-0.03125 0.28125 -0.34375 0.53125q-0.4375 0.3125 -1.59375 0.875q-1.15625 0.5625 -2.46875 1.2500038q-1.3125 0.6875 -2.46875 1.3125q-1.15625 0.625 -1.65625 0.8125q-0.875 0.5 -1.9375 0.90625q-1.0625 0.40625 -2.1875 0.78125q-1.125 0.375 -2.21875 0.59375q-1.09375 0.21875 -1.96875 0.21875q-1.375 0 -2.25 -0.46875q-0.875 -0.46875 -1.3125 -1.25q-0.4375 -0.78125 -0.59375 -1.875q-0.15625 -1.09375 -0.03125 -2.2812538q-1.25 1.0000038 -2.6875 2.1250038q-1.4375 1.125 -3.0 2.0625q-1.5625 0.9375 -3.1875 1.625q-1.625 0.6875 -3.3125 0.6875q-0.9375 0 -1.6875 -0.46875q-0.75 -0.46875 -1.0625 -1.46875zm3.375 -1.3125q1.4375 0 3.1875 -0.84375q1.75 -0.84375 3.4375 -2.0937538q1.6875 -1.25 3.0625 -2.65625q1.375 -1.40625 2.125 -2.53125q0.0625 -1.875 0.53125 -3.59375q0.46875 -1.71875 0.46875 -3.53125q0 -0.125 -0.03125 -0.375q-0.03125 -0.25 -0.03125 -0.375q-0.8125 -0.6875 -1.375 -0.8125q-0.5625 -0.125 -1.5 -0.125q-0.125 0 -0.53125 0q-0.40625 0 -0.53125 0.0625q-0.375 0.3125 -1.25 1.15625q-0.875 0.84375 -1.84375 1.84375q-0.96875 1.0 -1.8125 1.875q-0.84375 0.875 -1.15625 1.1875q-0.0625 0 -0.25 0.21875q-0.1875 0.21875 -0.40625 0.53125q-0.21875 0.3125 -0.375 0.59375q-0.15625 0.28125 -0.21875 0.46875l-1.5 7.312504l0 1.6875zm43.625 -10.875004q-0.125 -0.25 -0.40625 -0.71875q-0.28125 -0.46875 -0.65625 -0.46875q-1.1875 0 -2.40625 1.03125q-1.21875 1.03125 -2.3125 2.4375q-1.09375 1.40625 -1.875 2.84375q-0.78125 1.4375 -0.96875 2.25q-0.25 0.8125 -0.25 1.9375038q0 1.125 -0.15625 2.125q-0.15625 1.0 -0.6875 1.6875q-0.53125 0.6875 -1.84375 0.6875q-0.8125 0 -1.09375 -0.34375q-0.28125 -0.34375 -0.28125 -1.15625q0.4375 -3.0 0.78125 -4.937504q0.34375 -1.9375 0.625 -3.40625q0.28125 -1.46875 0.5625 -2.875q0.28125 -1.40625 0.65625 -3.40625q0.375 -2.0 0.8125 -4.90625q0.4375 -2.90625 1.0625 -7.40625q0 -0.9375 0.125 -2.65625q0.125 -1.71875 0.46875 -3.6875q0.34375 -1.96875 0.90625 -3.999998q0.5625 -2.03125 1.40625 -3.65625q0.84375 -1.625 1.96875 -2.65625q1.125 -1.03125 2.625 -1.03125q1.0625 0 1.71875 0.71875q0.65625 0.71875 1.0 1.71875q0.34375 1.0 0.40625 2.09375q0.0625 1.09375 0.0625 1.78125q0 1.5625 -0.25 2.968748q-0.25 1.40625 -0.625 2.8125q-0.375 1.40625 -0.8125 2.8125q-0.4375 1.40625 -0.75 2.78125l-4.0 7.625l-2.25 4.875l0.3125 0.6875q1.3125 -1.5625 2.6875 -2.40625q1.375 -0.84375 3.4375 -0.96875q0.9375 -0.0625 1.59375 0.5625q0.65625 0.625 1.09375 1.59375q0.4375 0.96875 0.65625 1.96875q0.21875 1.0 0.28125 1.625q0 0.375 -0.0625 1.1875q-0.0625 0.8125 -0.125 1.875q-0.0625 1.0625 -0.09375 2.21875q-0.03125 1.15625 0.09375 2.15625q0.125 1.0000038 0.53125 1.7187538q0.40625 0.71875 1.09375 0.84375q2.4375 -0.3125 4.34375 -0.84375q1.90625 -0.53125 3.34375 -1.5q1.4375 -0.9687538 2.40625 -2.4687538q0.96875 -1.5 1.46875 -3.6875q0.4375 -0.625 1.25 -0.625q0.9375 0 1.21875 0.6875q0.28125 0.6875 0.28125 1.5q0 2.5 -1.59375 4.40625q-1.59375 1.9062538 -4.03125 3.1562538q-2.4375 1.25 -5.25 1.90625q-2.8125 0.65625 -5.1875 0.65625q-1.5 0 -2.0625 -1.03125q-0.5625 -1.03125 -0.65625 -2.5q-0.09375 -1.46875 -0.03125 -2.9687538q0.0625 -1.5 0 -2.4375q0 -0.3125 -0.0625 -1.03125q-0.0625 -0.71875 -0.15625 -1.53125q-0.09375 -0.8125 -0.21875 -1.5625q-0.125 -0.75 -0.125 -1.0625zm-5.125 -15.0q0 0.1875 0 0.625q0 0.4375 0.03125 0.8125q0.03125 0.375 0.03125 0.6875q0 0.3125 0 0.375l0.3125 0.3125q0.625 -0.375 1.15625 -1.3125q0.53125 -0.9375 0.96875 -2.25q0.4375 -1.3125 0.78125 -2.78125q0.34375 -1.46875 0.59375 -2.90625q0.25 -1.4375 0.40625 -2.624998q0.15625 -1.1875 0.15625 -1.9375q0 -0.25 -0.03125 -0.9375q-0.03125 -0.6875 -0.09375 -0.8125l-0.3125 -0.625q-1.5 1.1875 -2.3125 2.8125q-0.8125 1.625 -1.1875 3.374998q-0.375 1.75 -0.4375 3.625q-0.0625 1.875 -0.0625 3.5625zm54.125 26.625004q-0.125 -0.1875 -0.34375 -0.71875q-0.21875 -0.53125 -0.46875 -1.1875q-0.25 -0.65625 -0.4375 -1.21875q-0.1875 -0.5625038 -0.25 -0.8750038q0 0 -0.03125 -0.59375q-0.03125 -0.59375 -0.03125 -0.96875q0 -1.3125 0.125 -2.6875q0.125 -1.375 0.5625 -2.75q0.1875 -0.3125 0.6875 -1.28125q0.5 -0.96875 1.09375 -2.03125q0.59375 -1.0625 1.09375 -2.03125q0.5 -0.96875 0.75 -1.28125q1.5625 -2.75 3.96875 -4.875q2.40625 -2.125 4.90625 -4.0q0.25 -0.1875 1.09375 -0.875q0.84375 -0.6875 1.90625 -1.4375q1.0625 -0.75 1.96875 -1.4375q0.90625 -0.6875 1.09375 -0.8125q0.0625 -0.0625 0.1875 -0.1875q0.125 -0.125 0.1875 -0.125l0 -0.1875l0 -0.125q-1.875 -0.375 -3.65625 -0.84375q-1.78125 -0.46875 -3.15625 -1.375q-1.375 -0.90625 -2.1875 -2.312498q-0.8125 -1.40625 -0.8125 -3.59375q0 -2.6875 1.5 -4.59375q1.5 -1.90625 3.71875 -3.1875q2.21875 -1.28125 4.78125 -1.875q2.5625 -0.59375 4.75 -0.59375q1.125 0 2.34375 0.15625q1.21875 0.15625 2.25 0.625q1.03125 0.46875 1.6875 1.3125q0.65625 0.84375 0.65625 2.28125q0 0.875 -0.53125 1.34375q-0.53125 0.46875 -1.34375 0.46875q-0.75 0 -1.0 -0.40625q-0.25 -0.40625 -0.59375 -0.9375q-0.34375 -0.53125 -1.0625 -0.96875q-0.71875 -0.4375 -2.34375 -0.4375q-1.375 0 -2.71875 0.21875q-1.34375 0.21875 -2.65625 0.09375q-1.0625 0.3125 -2.15625 0.96875q-1.09375 0.65625 -1.96875 1.53125q-0.875 0.875 -1.4375 1.96875q-0.5625 1.09375 -0.5625 2.34375q0 1.75 0.875 2.65625q0.875 0.90625 2.21875 1.3125q1.34375 0.4062481 2.875 0.4687481q1.53125 0.0625 2.875 0.21875q1.34375 0.15625 2.21875 0.625q0.875 0.46875 0.875 1.65625l0 0.5625l-1.875 1.8125q-0.3125 0.3125 -1.09375 0.84375q-0.78125 0.53125 -1.6875 1.1875q-0.90625 0.65625 -1.9375 1.4375q-1.03125 0.78125 -1.9375 1.46875q-0.90625 0.6875 -1.6875 1.25q-0.78125 0.5625 -1.09375 0.875q-1.75 1.4375 -3.5625 3.28125q-1.8125 1.84375 -3.34375 4.0q-1.53125 2.15625 -2.5 4.5q-0.96875 2.34375 -0.96875 4.78125q0 2.875 1.125 4.125004q1.125 1.25 3.75 1.25q2.5625 0 5.15625 -0.75q2.59375 -0.75 5.09375 -1.9687538q2.5 -1.21875 4.78125 -2.75q2.28125 -1.53125 4.21875 -3.09375l0.25 0q0.5 0 0.90625 0.28125q0.40625 0.28125 0.40625 0.78125q0 0.3125 -0.34375 0.78125q-0.34375 0.46875 -0.75 0.84375q-0.40625 0.375 -0.71875 0.65625q-0.3125 0.28125 -0.3125 0.28125q-2.0625 1.5625 -4.40625 3.0312538q-2.34375 1.46875 -4.8125 2.65625q-2.46875 1.1875 -5.0625 1.90625q-2.59375 0.71875 -5.28125 0.71875q-0.25 0 -1.1875 0q-0.9375 0 -1.1875 0q-2.0625 -0.5625 -3.4375 -2.1875zm32.8125 -8.875004q0 0 0.09375 -0.09375q0.09375 -0.09375 0.15625 -0.15625q0.125 -0.5625 0.5 -1.9375q0.375 -1.375 0.8125 -2.96875q0.4375 -1.59375 0.84375 -2.96875q0.40625 -1.375 0.59375 -1.875q0.0625 -0.25 0.40625 -1.09375q0.34375 -0.84375 0.78125 -1.84375q0.4375 -1.0 0.875 -2.0q0.4375 -1.0 0.625 -1.5q0.4375 -0.875 1.34375 -2.3125q0.90625 -1.4375 2.0625 -2.71875q1.15625 -1.28125 2.40625 -2.25q1.25 -0.96875 2.3125 -0.96875q0.5625 0 0.90625 0.3125q0.34375 0.3125 0.5 0.71875q0.15625 0.40625 0.21875 0.90625q0.0625 0.5 0.0625 0.875q0 3.25 -0.90625 6.46875q-0.90625 3.21875 -2.46875 6.15625q-1.5625 2.9375 -3.71875 5.53125q-2.15625 2.59375 -4.53125 4.65625q-0.0625 0.1875 -0.15625 0.75q-0.09375 0.5625 -0.15625 0.8125l0 0.125q0 1.25 0.65625 2.0q0.65625 0.75 1.59375 1.0937538q0.9375 0.34375 2.09375 0.46875q1.15625 0.125 2.21875 0.125q0.5625 0 1.65625 -0.5625q1.09375 -0.5625038 2.25 -1.2812538q1.15625 -0.71875 2.28125 -1.28125q1.125 -0.5625 1.6875 -0.5625q0.5625 0 0.875 0.375q0.3125 0.375 0.3125 0.9375q0 0.9375 -1.4375 2.0000038q-1.4375 1.0625 -3.3125 1.96875q-1.875 0.90625 -3.59375 1.53125q-1.71875 0.625 -2.28125 0.625q-1.875 0.375 -3.5 0.03125q-1.625 -0.34375 -2.8125 -1.1875q-1.1875 -0.84375 -1.96875 -2.0625q-0.78125 -1.2187538 -0.96875 -2.5312538l0.6875 -4.3125zm11.8125 -18.625q-0.5625 0 -1.28125 0.90625q-0.71875 0.90625 -1.40625 2.09375q-0.6875 1.1875 -1.21875 2.28125q-0.53125 1.09375 -0.59375 1.46875q-0.1875 0.4375 -0.5625 1.4375q-0.375 1.0 -0.75 2.09375q-0.375 1.09375 -0.71875 2.09375q-0.34375 1.0 -0.46875 1.4375l0.3125 0q0 0 0.375 -0.46875q0.375 -0.46875 0.84375 -1.09375q0.46875 -0.625 1.0 -1.28125q0.53125 -0.65625 0.78125 -1.09375q0.25 -0.375 0.6875 -1.15625q0.4375 -0.78125 0.5625 -0.96875q0.25 -0.6875 0.6875 -1.84375q0.4375 -1.15625 0.8125 -2.28125q0.375 -1.125 0.65625 -1.96875q0.28125 -0.84375 0.28125 -0.96875l0 -0.6875zm6.5625 28.062504q0 -0.1875 0 -0.9375q0 -0.75 0 -1.0q-1.0625 -3.7500038 -0.28125 -7.375004q0.78125 -3.625 2.8125 -6.53125q2.03125 -2.90625 5.1875 -4.875q3.15625 -1.96875 6.90625 -2.40625l1.125 0q1.375 0 2.28125 0.59375q0.90625 0.59375 1.4375 1.53125q0.53125 0.9375 0.75 2.125q0.21875 1.1875 0.21875 2.375q0 1.625 -0.34375 3.15625q-0.34375 1.53125 -0.75 3.09375q-0.40625 1.5625 -0.75 3.09375q-0.34375 1.53125 -0.34375 3.21875l0 0.3750038q0.0625 0.125 0.15625 0.71875q0.09375 0.59375 0.15625 0.71875q0.125 0 0.625 0.03125q0.5 0.03125 0.625 0.03125q0.625 0 1.21875 -0.03125q0.59375 -0.03125 1.21875 -0.28125l11.875 -5.500004q0.0625 0 0.21875 -0.03125q0.15625 -0.03125 0.21875 -0.03125q0.625 0 1.03125 0.375q0.40625 0.375 0.40625 1.0q0 0.3125 -0.03125 0.59375q-0.03125 0.28125 -0.34375 0.53125q-0.4375 0.3125 -1.59375 0.875q-1.15625 0.5625 -2.46875 1.2500038q-1.3125 0.6875 -2.46875 1.3125q-1.15625 0.625 -1.65625 0.8125q-0.875 0.5 -1.9375 0.90625q-1.0625 0.40625 -2.1875 0.78125q-1.125 0.375 -2.21875 0.59375q-1.09375 0.21875 -1.96875 0.21875q-1.375 0 -2.25 -0.46875q-0.875 -0.46875 -1.3125 -1.25q-0.4375 -0.78125 -0.59375 -1.875q-0.15625 -1.09375 -0.03125 -2.2812538q-1.25 1.0000038 -2.6875 2.1250038q-1.4375 1.125 -3.0 2.0625q-1.5625 0.9375 -3.1875 1.625q-1.625 0.6875 -3.3125 0.6875q-0.9375 0 -1.6875 -0.46875q-0.75 -0.46875 -1.0625 -1.46875zm3.375 -1.3125q1.4375 0 3.1875 -0.84375q1.75 -0.84375 3.4375 -2.0937538q1.6875 -1.25 3.0625 -2.65625q1.375 -1.40625 2.125 -2.53125q0.0625 -1.875 0.53125 -3.59375q0.46875 -1.71875 0.46875 -3.53125q0 -0.125 -0.03125 -0.375q-0.03125 -0.25 -0.03125 -0.375q-0.8125 -0.6875 -1.375 -0.8125q-0.5625 -0.125 -1.5 -0.125q-0.125 0 -0.53125 0q-0.40625 0 -0.53125 0.0625q-0.375 0.3125 -1.25 1.15625q-0.875 0.84375 -1.84375 1.84375q-0.96875 1.0 -1.8125 1.875q-0.84375 0.875 -1.15625 1.1875q-0.0625 0 -0.25 0.21875q-0.1875 0.21875 -0.40625 0.53125q-0.21875 0.3125 -0.375 0.59375q-0.15625 0.28125 -0.21875 0.46875l-1.5 7.312504l0 1.6875zm27.25 18.9375q0 -4.0625 1.78125 -7.46875q1.78125 -3.40625 4.5625 -6.1875q2.78125 -2.78125 6.1875 -4.96875q3.40625 -2.1875 6.65625 -3.8125038l1.8125 -5.8125q-0.3125 0.375 -1.21875 1.25q-0.90625 0.875 -1.90625 1.84375q-1.0 0.96875 -1.9375 1.8125q-0.9375 0.84375 -1.3125 1.15625q-0.75 0.625 -1.8125 1.4375038q-1.0625 0.8125 -2.28125 1.53125q-1.21875 0.71875 -2.46875 1.1875q-1.25 0.46875 -2.25 0.46875q-1.375 0 -1.78125 -0.65625q-0.40625 -0.65625 -0.40625 -1.90625q0 -1.0 0.15625 -2.0625038q0.15625 -1.0625 -0.09375 -2.125l2.4375 -6.625q0.5625 -0.5625 1.09375 -1.75q0.53125 -1.1875 1.0625 -2.375q0.53125 -1.1875 1.125 -2.0625q0.59375 -0.875 1.28125 -0.875q0.75 0 1.28125 0.4375q0.53125 0.4375 0.53125 1.25q0 0.625 -0.15625 1.09375q-0.15625 0.46875 -0.46875 1.21875q-0.8125 1.6875 -1.59375 3.1875q-0.78125 1.5 -1.4375 3.0q-0.65625 1.5 -1.0625 3.09375q-0.40625 1.59375 -0.40625 3.5312538l0.25 0q0 0 0.375 -0.21875381q0.375 -0.21875 0.84375 -0.5q0.46875 -0.28125 0.96875 -0.59375q0.5 -0.3125 0.875 -0.5625q3.4375 -2.25 6.0625 -5.28125q2.625 -3.03125 5.1875 -6.28125q0.25 -0.375 0.4375 -0.5625q0.1875 -0.1875 0.3125 -0.28125q0.125 -0.09375 0.3125 -0.09375q0.1875 0 0.5625 0q0.875 0 1.40625 0.34375q0.53125 0.34375 0.65625 1.53125q0.0625 0.8125 -0.125 1.96875q-0.1875 1.15625 -0.5 2.28125q-0.3125 1.125 -0.65625 2.21875q-0.34375 1.09375 -0.59375 1.71875l0 0.9375q0.125 -0.0625 0.59375 -0.1875q0.46875 -0.125 0.65625 -0.1875q0.375 -0.0625 2.0625 -0.6875q1.6875 -0.625 3.65625 -1.34375q1.96875 -0.71875 3.65625 -1.34375q1.6875 -0.625 2.125 -0.8125l0.125 0q0.4375 0 0.78125 0.3125q0.34375 0.3125 0.34375 0.75q0 0.4375 -0.28125 0.75q-0.28125 0.3125 -0.65625 0.53125q-0.375 0.21875 -0.8125 0.40625q-0.4375 0.1875 -0.75 0.3125q-0.4375 0.25 -1.25 0.59375q-0.8125 0.34375 -1.84375 0.75q-1.03125 0.40625 -2.15625 0.90625q-1.125 0.5 -2.1875 0.9375q-2.5625 1.0625 -5.5625 2.2500038l-5.5 20.75q-0.375 1.5 -1.40625 3.125q-1.03125 1.625 -2.40625 3.0q-1.375 1.375 -3.03125 2.21875q-1.65625 0.84375 -3.34375 0.84375q-1.75 0 -3.0 -0.90625q-1.25 -0.90625 -2.0625 -2.3125q-0.8125 -1.40625 -1.15625 -3.03125q-0.34375 -1.625 -0.34375 -3.0625zm3.375 0q0 0.8125 0.15625 1.8125q0.15625 1.0 0.59375 1.9375q0.4375 0.9375 1.09375 1.5625q0.65625 0.625 1.71875 0.625q1.375 0 2.53125 -0.84375q1.15625 -0.84375 2.0625 -2.0625q0.90625 -1.21875 1.53125 -2.59375q0.625 -1.375 1.0 -2.4375q0.1875 -0.75 0.5625 -2.09375q0.375 -1.34375 0.71875 -2.65625q0.34375 -1.3125 0.59375 -2.34375q0.25 -1.03125 0.25 -1.21875l0 -0.25l1.8125 -7.875q-2.5 0.8125 -5.09375 2.75q-2.59375 1.9375 -4.71875 4.5q-2.125 2.5625 -3.46875 5.5q-1.34375 2.9375 -1.34375 5.6875zm31.3125 -17.0l2.125 -12.500004l0 -1.75l1.25 -8.3125q0.1875 -0.25 0.6875 -0.28125q0.5 -0.03125 0.6875 -0.03125q0.5 0 1.15625 0.34375q0.65625 0.34375 0.65625 0.90625l0 4.25q0.25 -0.1875 0.875 -0.75q0.625 -0.5625 1.34375 -1.1875q0.71875 -0.625 1.34375 -1.1875q0.625 -0.5625 0.8125 -0.8125q0.6875 -0.625 1.65625 -1.0625q0.96875 -0.4375 1.84375 -0.4375q1.8125 0 2.84375 1.125q1.03125 1.125 1.03125 2.875q0 0.125 -0.03125 0.15625q-0.03125 0.03125 -0.03125 0.15625l0 0.25l-2.375 10.6875l0 5.062504q1.9375 0 4.03125 -0.78125q2.09375 -0.78125 4.03125 -1.9687538q1.9375 -1.1875 3.625 -2.71875q1.6875 -1.53125 2.9375 -2.96875l0.25 0q0.4375 0 0.71875 0.28125q0.28125 0.28125 0.28125 0.71875q0 1.375 -0.90625 2.71875q-0.90625 1.34375 -2.3125 2.53125q-1.40625 1.1875038 -3.25 2.2500038q-1.84375 1.0625 -3.625 1.8125q-1.78125 0.75 -3.46875 1.1875q-1.6875 0.4375 -2.875 0.4375q-1.1875 0 -1.875 -0.4375q-0.6875 -0.4375 -1.03125 -1.15625q-0.34375 -0.71875 -0.4375 -1.59375q-0.09375 -0.875 -0.09375 -1.875l0 -0.8125038l2.4375 -12.125l0 -2.0625q-1.5 0 -2.96875 1.3125q-1.46875 1.3125 -2.625 3.1875q-1.15625 1.875 -2.0 3.8125q-0.84375 1.9375 -1.21875 3.1875q-0.125 0.4375 -0.375 1.5625q-0.25 1.125 -0.46875 2.3750038q-0.21875 1.25 -0.40625 2.375q-0.1875 1.125 -0.25 1.625q0.0625 0.375 -0.21875 0.5625q-0.28125 0.1875 -0.65625 0.28125q-0.375 0.09375 -0.78125 0.09375q-0.40625 0 -0.65625 0q-0.5625 0 -1.125 -0.1875q-0.5625 -0.1875 -0.5625 -0.9375l0 -0.1875zm29.625 -0.625q0 -0.1875 0 -0.9375q0 -0.75 0 -1.0q-1.0625 -3.7500038 -0.28125 -7.375004q0.78125 -3.625 2.8125 -6.53125q2.03125 -2.90625 5.1875 -4.875q3.15625 -1.96875 6.90625 -2.40625l1.125 0q1.375 0 2.28125 0.59375q0.90625 0.59375 1.4375 1.53125q0.53125 0.9375 0.75 2.125q0.21875 1.1875 0.21875 2.375q0 1.625 -0.34375 3.15625q-0.34375 1.53125 -0.75 3.09375q-0.40625 1.5625 -0.75 3.09375q-0.34375 1.53125 -0.34375 3.21875l0 0.3750038q0.0625 0.125 0.15625 0.71875q0.09375 0.59375 0.15625 0.71875q0.125 0 0.625 0.03125q0.5 0.03125 0.625 0.03125q0.625 0 1.21875 -0.03125q0.59375 -0.03125 1.21875 -0.28125l11.875 -5.500004q0.0625 0 0.21875 -0.03125q0.15625 -0.03125 0.21875 -0.03125q0.625 0 1.03125 0.375q0.40625 0.375 0.40625 1.0q0 0.3125 -0.03125 0.59375q-0.03125 0.28125 -0.34375 0.53125q-0.4375 0.3125 -1.59375 0.875q-1.15625 0.5625 -2.46875 1.2500038q-1.3125 0.6875 -2.46875 1.3125q-1.15625 0.625 -1.65625 0.8125q-0.875 0.5 -1.9375 0.90625q-1.0625 0.40625 -2.1875 0.78125q-1.125 0.375 -2.21875 0.59375q-1.09375 0.21875 -1.96875 0.21875q-1.375 0 -2.25 -0.46875q-0.875 -0.46875 -1.3125 -1.25q-0.4375 -0.78125 -0.59375 -1.875q-0.15625 -1.09375 -0.03125 -2.2812538q-1.25 1.0000038 -2.6875 2.1250038q-1.4375 1.125 -3.0 2.0625q-1.5625 0.9375 -3.1875 1.625q-1.625 0.6875 -3.3125 0.6875q-0.9375 0 -1.6875 -0.46875q-0.75 -0.46875 -1.0625 -1.46875zm3.375 -1.3125q1.4375 0 3.1875 -0.84375q1.75 -0.84375 3.4375 -2.0937538q1.6875 -1.25 3.0625 -2.65625q1.375 -1.40625 2.125 -2.53125q0.0625 -1.875 0.53125 -3.59375q0.46875 -1.71875 0.46875 -3.53125q0 -0.125 -0.03125 -0.375q-0.03125 -0.25 -0.03125 -0.375q-0.8125 -0.6875 -1.375 -0.8125q-0.5625 -0.125 -1.5 -0.125q-0.125 0 -0.53125 0q-0.40625 0 -0.53125 0.0625q-0.375 0.3125 -1.25 1.15625q-0.875 0.84375 -1.84375 1.84375q-0.96875 1.0 -1.8125 1.875q-0.84375 0.875 -1.15625 1.1875q-0.0625 0 -0.25 0.21875q-0.1875 0.21875 -0.40625 0.53125q-0.21875 0.3125 -0.375 0.59375q-0.15625 0.28125 -0.21875 0.46875l-1.5 7.312504l0 1.6875zm70.5625 0.9375q0 -0.3125 0.03125 -0.5625q0.03125 -0.25 0.28125 -0.5q0.125 0 0.40625 -0.03125q0.28125 -0.03125 0.40625 -0.03125q1.125 0 2.15625 0.1875q1.03125 0.1875 2.15625 0.1875q2.0625 0 3.9375 -0.5625q1.875 -0.5625 3.34375 -1.65625q1.46875 -1.0937538 2.34375 -2.7500038q0.875 -1.65625 0.875 -3.90625q0 -1.3125 -0.40625 -2.625q-0.40625 -1.3125 -1.09375 -2.5625q-0.6875 -1.25 -1.5625 -2.34375q-0.875 -1.09375 -1.875 -1.90625l-14.0 -11.5625q-0.125 -0.1875 -0.59375 -0.65625q-0.46875 -0.46875 -0.71875 -0.59375l-0.0625 0.125q-0.0625 0 -0.125 0l-0.0625 0l0 24.5625l-0.3125 4.562504q0 0.5625 -0.5625 0.84375q-0.5625 0.28125 -0.9375 0.40625q-0.75 0.0625 -1.09375 -0.25q-0.34375 -0.3125 -0.53125 -0.875q-0.1875 -0.5625 -0.1875 -1.1875038q0 -0.625 0 -1.0625l0 -31.687498q-1.25 -1.9375 -2.03125 -3.9375q-0.78125 -2.0 -0.78125 -4.3125q0 -0.5625 0.0625 -1.5q0.0625 -0.9375 0.28125 -1.84375q0.21875 -0.90625 0.75 -1.5625q0.53125 -0.65625 1.46875 -0.65625q0.625 0 0.90625 0.5q0.28125 0.5 0.28125 1.0625q0 0.9375 -0.1875 1.75q-0.1875 0.8125 -0.1875 1.75q0 0.5625 -0.03125 1.4375q-0.03125 0.875 0.34375 1.5q0.0625 -0.75 0.09375 -2.0q0.03125 -1.25 0.28125 -2.4375q0.25 -1.1875 0.84375 -2.0625q0.59375 -0.875 1.84375 -0.875q0.5 0 0.875 0.21875q0.375 0.21875 0.375 0.78125l0 6.375q-0.75 0.8125 -0.84375 1.84375q-0.09375 1.03125 -0.09375 2.03125l0 0.8125q0 0.1875 0.0625 0.5q0.0625 0.1875 0.28125 0.5q0.21875 0.3125 0.5 0.71875q0.28125 0.40625 0.53125 0.7499981q0.25 0.34375 0.4375 0.53125l14.0625 11.5q3.1875 2.6875 5.25 6.03125q2.0625 3.34375 2.0625 7.53125q0 2.75 -1.125 4.90625q-1.125 2.1562538 -3.0 3.6875038q-1.875 1.53125 -4.28125 2.34375q-2.40625 0.8125 -4.96875 0.8125q-0.5 0 -1.5 -0.0625q-1.0 -0.0625 -1.96875 -0.25q-0.96875 -0.1875 -1.6875 -0.625q-0.71875 -0.4375 -0.71875 -1.3125zm21.8125 -7.500004q0.125 -0.375 0.40625 -1.34375q0.28125 -0.96875 0.5625 -2.09375q0.28125 -1.125 0.5 -2.15625q0.21875 -1.03125 0.34375 -1.40625q0.375 -1.5 0.90625 -3.25q0.53125 -1.75 1.46875 -3.25q0.9375 -1.5 2.40625 -2.46875q1.46875 -0.96875 3.65625 -0.96875q0.8125 0 1.15625 0.59375q0.34375 0.59375 0.59375 1.28125q0 0.25 0.03125 0.90625q0.03125 0.65625 0.03125 0.90625q0 2.6875 -0.53125 4.75q-0.53125 2.0625 -1.625 3.8125q-1.09375 1.75 -2.65625 3.28125q-1.5625 1.53125 -3.5625 3.21875q-0.0625 0.1875 -0.1875 0.625q-0.125 0.4375 -0.125 0.625l0 0.125q0 1.1250038 0.375 1.8125038q0.375 0.6875 1.03125 1.09375q0.65625 0.40625 1.5 0.5q0.84375 0.09375 1.84375 0.09375q2.9375 0 5.625 -0.8125q2.6875 -0.8125 4.9375 -2.6250038q0.3125 -0.3125 0.78125 -0.90625q0.46875 -0.59375 0.96875 -1.21875q0.5 -0.625 1.0625 -1.09375q0.5625 -0.46875 1.1875 -0.46875q0.625 0 0.75 0.5q0.125 0.5 0.125 1.0q0 1.375 -0.84375 2.59375q-0.84375 1.2187538 -2.1875 2.1875038q-1.34375 0.96875 -3.0625 1.71875q-1.71875 0.75 -3.40625 1.25q-1.6875 0.5 -3.21875 0.75q-1.53125 0.25 -2.59375 0.25q-3.3125 0 -5.53125 -1.09375q-2.21875 -1.09375 -3.03125 -4.40625l0.3125 -4.312504zm8.9375 -12.3125q-1.25 1.125 -1.96875 2.03125q-0.71875 0.90625 -1.125 1.875q-0.40625 0.96875 -0.6875 2.09375q-0.28125 1.125 -0.59375 2.625q1.1875 -0.9375 1.96875 -1.875q0.78125 -0.9375 1.28125 -1.9375q0.5 -1.0 0.75 -2.15625q0.25 -1.15625 0.375 -2.65625zm16.75 13.25q-0.5 0.25 -1.0625 0.28125q-0.5625 0.03125 -1.125 0.03125q-0.5625 0 -1.125 0.03125q-0.5625 0.03125 -1.125 0.28125q-1.0625 0.125 -1.375 -0.15625q-0.3125 -0.28125 -0.1875 -0.78125q0.125 -0.5 0.6875 -1.125q0.5625 -0.625 1.28125 -1.0625q0.71875 -0.4375 1.5625 -0.625q0.84375 -0.1875 1.53125 0.0625q-0.3125 -1.125 0.0625 -1.9375q0.375 -0.8125 1.4999695 -0.8125q0.5625 0 1.03125 0.09375q0.46875 0.09375 0.71875 0.53125q0.9375 -0.5625 2.5 -1.90625q1.5625 -1.34375 3.21875 -2.75q1.65625 -1.40625 3.03125 -2.5q1.375 -1.09375 1.875 -1.09375q0.1875 0 0.5 0.03125q0.3125 0.03125 0.65625 0.15625q0.34375 0.125 0.5625 0.28125q0.21875 0.15625 0.21875 0.46875l0 2.6875q-0.4375 1.75 -0.84375 3.28125q-0.40625 1.53125 -0.6875 3.0q-0.28125 1.46875 -0.40625 2.96875q-0.125 1.5 -0.125 3.1875q1.0 0 2.40625 -0.4375q1.40625 -0.4375 2.84375 -1.0625q1.4375 -0.625 2.6875 -1.28125q1.25 -0.65625 2.0 -1.09375q0.125 -0.0625 0.5625 -0.4375q0.4375 -0.375 0.9375 -0.78125q0.5 -0.40625 0.96875 -0.75q0.46875 -0.34375 0.59375 -0.46875q0.125 -0.125 0.625 -0.34375q0.5 -0.21875 0.5625 -0.28125q0.25 -0.0625 0.46875 0.15625q0.21875 0.21875 0.40625 0.5q0.1875 0.28125 0.28125 0.5625q0.09375 0.28125 0.09375 0.34375q0 0.625 -0.5 1.25q-0.5 0.625 -1.1875 1.15625q-0.6875 0.53125 -1.40625 1.0q-0.71875 0.46875 -1.09375 0.84375q-0.5 0.25 -1.71875 0.8125q-1.21875 0.5625 -2.59375 1.1875038q-1.375 0.625 -2.59375 1.1875q-1.21875 0.5625 -1.71875 0.8125q-0.125 0.0625 -0.5625 0.15625q-0.4375 0.09375 -0.9375 0.28125q-0.5 0.1875 -0.96875 0.28125q-0.46875 0.09375 -0.59375 0.15625q-0.5625 0.1875 -0.84375 0.625q-0.28125 0.4375 -0.5625 0.875q-0.28125 0.4375 -0.6875 0.75q-0.40625 0.3125 -1.28125 0.1875q-0.0625 -0.0625 -0.53125 -0.28125q-0.46875 -0.21875 -0.59375 -0.34375q-1.5 -1.0625 -2.5625 -2.0q-1.0625 -0.9375 -1.9375 -1.84375q-0.875 -0.90625 -1.65625 -1.9687538q-0.78125 -1.0625 -1.7812195 -2.375zm3.9374695 -2.5q0.4375 0.9375 0.84375 1.8125q0.40625 0.875 0.96875 1.65625q0.5625 0.78125 1.28125 1.34375q0.71875 0.5625 1.78125 0.6875q0.125 -0.9375 0.3125 -2.25q0.1875 -1.3125 0.4375 -2.75q0.25 -1.4375 0.59375 -2.84375q0.34375 -1.40625 0.78125 -2.46875l-0.625 0q-1.0 0.6875 -1.875 1.375q-0.8125 0.625 -1.625 1.21875q-0.8125 0.59375 -1.3125 1.03125q-0.0625 0.0625 -0.1875 0.1875q-0.125 0.125 -0.1875 0.125q-0.0625 0.125 -0.5625 0.4375q-0.5 0.3125 -0.625 0.4375zm7.0 -5.75q-0.1875 0 -0.1875 0.28125q0 0.28125 0.1875 0.28125q0.25 0 0.25 -0.28125q0 -0.28125 -0.25 -0.28125zm15.9375 3.9375q0.0625 -0.3125 0.375 -1.125q0.3125 -0.8125 0.65625 -1.75q0.34375 -0.9375 0.65625 -1.75q0.3125 -0.8125 0.4375 -1.125q0.375 -1.0 0.71875 -1.3125q0.34375 -0.3125 1.28125 -0.3125q1.0 0 1.3125 0.6875q0.3125 0.6875 0.3125 1.625q0 1.625 -0.46875 2.96875q-0.46875 1.34375 -1.03125 2.6875q-0.5625 1.34375 -1.03125 2.875q-0.46875 1.53125 -0.46875 3.53125q0 0.25 0 0.7187538q0 0.46875 0.0625 0.9375q0.0625 0.46875 0.25 0.8125q0.1875 0.34375 0.5 0.34375q1.625 0 3.28125 -0.65625q1.65625 -0.65625 3.25 -1.5625q1.59375 -0.9062538 3.0625 -2.0000038q1.46875 -1.09375 2.65625 -1.90625q0.4375 -0.3125 0.65625 -0.625q0.21875 -0.3125 0.40625 -0.59375q0.1875 -0.28125 0.46875 -0.5q0.28125 -0.21875 0.90625 -0.21875q0.8125 0 1.34375 0.34375q0.53125 0.34375 0.53125 1.21875q0 0.375 -0.03125 0.6875q-0.03125 0.3125 -0.34375 0.5625q-0.0625 0.1875 -0.46875 0.5q-0.40625 0.3125 -0.84375 0.65625q-0.4375 0.34375 -0.8125 0.625q-0.375 0.28125 -0.5625 0.34375q-0.0625 0 -0.34375 0.15625q-0.28125 0.15625 -0.34375 0.15625q-0.0625 0.0625 -0.15625 0.15625q-0.09375 0.09375 -0.09375 0.15625q-1.3125 1.0000038 -2.84375 2.0312538q-1.53125 1.03125 -3.21875 1.875q-1.6875 0.84375 -3.46875 1.40625q-1.78125 0.5625 -3.53125 0.5625q-1.5 0 -2.28125 -0.78125q-0.78125 -0.78125 -1.15625 -1.96875q-0.375 -1.1875 -0.4375 -2.5q-0.0625 -1.3125038 -0.0625 -2.3750038l0.875 -5.5625zm3.0 -16.4375q0 -1.125 0.4375 -1.5q0.4375 -0.375 1.5625 -0.375q0.5625 0 1.125 0.21875q0.5625 0.21875 0.5625 1.03125q0 0.8125 -0.78125 1.5q-0.78125 0.6875 -1.53125 0.6875q-0.75 0 -1.0625 -0.46875q-0.3125 -0.46875 -0.3125 -1.09375zm23.4375 60.062504q-0.3125 -0.9375 -0.53125 -1.75q-0.21875 -0.8125 -0.28125 -1.53125q-0.0625 -0.71875 -0.09375 -1.4375q-0.03125 -0.71875 -0.03125 -1.71875q0 -0.125 0 -0.46875q0 -0.34375 0 -0.75q0 -0.40625 0.03125 -0.75q0.03125 -0.34375 0.03125 -0.46875q0.6875 -3.0625 1.53125 -6.03125q0.84375 -2.96875 2.03125 -5.75q1.1875 -2.78125 2.875 -5.25q1.6875 -2.46875 4.1875 -4.59375q0.0625 -0.3125 0.1875 -1.25q0.125 -0.9375 0.3125 -1.9375q0.1875 -1.0 0.28125 -1.90625q0.09375 -0.9062538 0.15625 -1.3437538q0 -0.125 -0.03125 -0.59375q-0.03125 -0.46875 -0.03125 -0.59375l-0.1875 0q-2.1875 1.125 -4.1875 1.96875q-2.0 0.8437538 -4.375 0.8437538q-1.3125 0 -2.21875 -0.4375q-0.90625 -0.4375038 -1.46875 -1.1875038q-0.5625 -0.75 -0.84375 -1.75q-0.28125 -1.0 -0.34375 -2.1875l1.5 -4.5625q0.5625 -1.5625 1.40625 -3.34375q0.84375 -1.78125 1.9375 -3.40625q1.09375 -1.625 2.53125 -2.96875q1.4375 -1.34375 3.25 -1.90625q2.4375 -0.375 4.53125 0.125q2.09375 0.5 3.65625 1.4375q1.5625 0.9375 2.53125 2.03125q0.96875 1.09375 1.15625 1.90625q-0.125 0.9375 -0.5625 1.96875q-0.4375 1.03125 -0.96875 2.0625q-0.53125 1.03125 -1.0625 1.875q-0.53125 0.84375 -0.78125 1.40625q-0.5 1.125 -0.875 2.375q-0.375 1.25 -0.65625 2.5625q-0.28125 1.3125 -0.4375 2.65625q-0.15625 1.3437538 -0.15625 2.4687538l0 0.9375q3.1875 -1.875 6.875 -2.9375038q3.6875 -1.0625 7.3125 -1.0625q0.4375 0 1.15625 0q0.71875 0 1.375 0.15625q0.65625 0.15625 1.15625 0.5625q0.5 0.4062538 0.5 1.1562538q0 1.1875 -1.3125 1.1875q-0.1875 0 -0.875 -0.09375q-0.6875 -0.09375 -0.9375 -0.21875q-0.4375 0.0625 -1.5 0.25q-1.0625 0.1875 -2.3125 0.4375q-1.25 0.25 -2.3125 0.5q-1.0625 0.25 -1.5 0.3125q-0.1875 0.0625 -0.71875 0.28125q-0.53125 0.21875 -1.15625 0.46875q-0.625 0.25 -1.21875 0.46875q-0.59375 0.21875 -0.78125 0.40625q-0.5 0.125 -1.15625 0.46875q-0.65625 0.34375 -1.28125 0.6875q-0.625 0.34375 -1.09375 0.625q-0.46875 0.28125 -0.46875 0.34375l-0.625 0.875l-1.5 15.8125q-0.1875 1.625 -0.90625 3.9375q-0.71875 2.3125 -1.90625 4.4375q-1.1875 2.125 -2.90625 3.59375q-1.71875 1.46875 -3.90625 1.46875q-0.625 0 -1.09375 -0.15625q-0.46875 -0.15625 -0.90625 -0.71875zm2.125 -6.125q0.0625 0.5625 0.15625 1.625q0.09375 1.0625 0.40625 1.75q1.1875 -0.3125 2.1875 -1.71875q1.0 -1.40625 1.6875 -3.15625q0.6875 -1.75 1.125 -3.46875q0.4375 -1.71875 0.5625 -2.65625q0.25 -1.4375 0.40625 -2.71875q0.15625 -1.28125 0.28125 -2.4375q0.125 -1.15625 0.1875 -2.28125q0.0625 -1.125 0.0625 -2.4375q0 -0.1875 -0.03125 -0.84375q-0.03125 -0.65625 -0.03125 -0.84375q-1.6875 2.1875 -2.8125 4.4375q-1.125 2.25 -1.90625 4.59375q-0.78125 2.34375 -1.3125 4.875q-0.53125 2.53125 -0.96875 5.28125zm-1.5 -33.562504q0.1875 0.5 0.53125 0.875q0.34375 0.375 0.96875 0.375q2.5625 0 4.59375 -1.09375q2.03125 -1.09375 3.59375 -2.84375q1.5625 -1.75 2.71875 -3.8125q1.15625 -2.0625 1.96875 -4.125l0 -0.25q-1.0 -2.0625 -2.28125 -2.65625q-1.28125 -0.59375 -2.6875 -0.1875q-1.40625 0.40625 -2.84375 1.625q-1.4375 1.21875 -2.71875 2.75q-1.28125 1.53125 -2.28125 3.21875q-1.0 1.6875 -1.5625 3.09375q-0.5625 1.40625 -0.625 2.28125q-0.0625 0.875 0.625 0.75zm27.625 7.937504l2.125 -12.500004l0 -1.75l1.25 -8.3125q0.1875 -0.25 0.6875 -0.28125q0.5 -0.03125 0.6875 -0.03125q0.5 0 1.15625 0.34375q0.65625 0.34375 0.65625 0.90625l0 4.25q0.25 -0.1875 0.875 -0.75q0.625 -0.5625 1.34375 -1.1875q0.71875 -0.625 1.34375 -1.1875q0.625 -0.5625 0.8125 -0.8125q0.6875 -0.625 1.65625 -1.0625q0.96875 -0.4375 1.84375 -0.4375q1.8125 0 2.84375 1.125q1.03125 1.125 1.03125 2.875q0 0.125 -0.03125 0.15625q-0.03125 0.03125 -0.03125 0.15625l0 0.25l-2.375 10.6875l0 5.062504q1.9375 0 4.03125 -0.78125q2.09375 -0.78125 4.03125 -1.9687538q1.9375 -1.1875 3.625 -2.71875q1.6875 -1.53125 2.9375 -2.96875l0.25 0q0.4375 0 0.71875 0.28125q0.28125 0.28125 0.28125 0.71875q0 1.375 -0.90625 2.71875q-0.90625 1.34375 -2.3125 2.53125q-1.40625 1.1875038 -3.25 2.2500038q-1.84375 1.0625 -3.625 1.8125q-1.78125 0.75 -3.46875 1.1875q-1.6875 0.4375 -2.875 0.4375q-1.1875 0 -1.875 -0.4375q-0.6875 -0.4375 -1.03125 -1.15625q-0.34375 -0.71875 -0.4375 -1.59375q-0.09375 -0.875 -0.09375 -1.875l0 -0.8125038l2.4375 -12.125l0 -2.0625q-1.5 0 -2.96875 1.3125q-1.46875 1.3125 -2.625 3.1875q-1.15625 1.875 -2.0 3.8125q-0.84375 1.9375 -1.21875 3.1875q-0.125 0.4375 -0.375 1.5625q-0.25 1.125 -0.46875 2.3750038q-0.21875 1.25 -0.40625 2.375q-0.1875 1.125 -0.25 1.625q0.0625 0.375 -0.21875 0.5625q-0.28125 0.1875 -0.65625 0.28125q-0.375 0.09375 -0.78125 0.09375q-0.40625 0 -0.65625 0q-0.5625 0 -1.125 -0.1875q-0.5625 -0.1875 -0.5625 -0.9375l0 -0.1875z" fill-rule="nonzero"></path><path fill="#000000" fill-opacity="0.0" d="m346.06824 160.6378l457.10236 0l0 48.188965l-457.10236 0z" fill-rule="evenodd"></path><path fill="#000000" fill-opacity="0.0" d="m-147.75328 61.09974l960.0 0l0 61.32283l-960.0 0z" fill-rule="evenodd"></path><path fill="#000000" d="m52.21245 74.72286l3.8125 0l0 0.75l-1.40625 0q1.140625 2.75 2.265625 5.453125q1.140625 2.6875 2.328125 5.40625l0.171875 0.53125q0.625 -1.90625 1.484375 -3.78125q0.859375 -1.890625 1.65625 -3.75q-0.40625 -0.96875 -0.8125 -1.921875q-0.40625 -0.96875 -0.828125 -1.9375l-1.59375 0l0 -0.75l3.828125 0l0 0.75l-1.4375 0q1.140625 2.75 2.28125 5.453125q1.140625 2.6875 2.328125 5.40625l0.171875 0.53125l0.171875 -0.53125q1.15625 -2.71875 2.296875 -5.40625q1.15625 -2.703125 2.296875 -5.453125l-1.3125 0l0 -0.75l3.8125 0l0 0.75l-1.703125 0q-1.390625 3.3125 -2.78125 6.578125q-1.375 3.265625 -2.78125 6.578125l-3.375 -7.921875l-0.171875 -0.515625q-0.75 2.109375 -1.703125 4.234375q-0.953125 2.125 -1.828125 4.203125q-1.40625 -3.3125 -2.8125 -6.578125q-1.390625 -3.265625 -2.765625 -6.578125l-1.59375 0l0 -0.75zm28.040344 12.53125l1.359375 0l0 -11.78125l-1.359375 0l0 -0.75l9.25 0l0 2.921875l-0.765625 0l0 -2.171875l-6.34375 0l0 5.453125l6.359375 0l0 0.765625l-6.359375 0l0 5.5625l6.609375 0l0 -2.15625l0.765625 0l0 2.921875l-9.515625 0l0 -0.765625zm16.249603 0l1.15625 0l0 -11.78125l-1.15625 0l0 -0.75l4.1875 0q0.890625 0 1.625 0.1875q0.734375 0.1875 1.25 0.59375q0.53125 0.390625 0.8125 1.03125q0.28125 0.640625 0.28125 1.515625q0 1.171875 -0.578125 2.0625q-0.578125 0.890625 -1.765625 1.21875q0.5625 0.109375 1.078125 0.375q0.515625 0.265625 0.90625 0.6875q0.390625 0.421875 0.625 0.96875q0.234375 0.546875 0.234375 1.234375q0 0.859375 -0.34375 1.5q-0.34375 0.625 -0.921875 1.0625q-0.578125 0.421875 -1.328125 0.640625q-0.734375 0.21875 -1.53125 0.21875l-4.53125 0l0 -0.765625zm1.9375 -5.546875l0 5.546875l2.515625 0q0.703125 0 1.3125 -0.171875q0.625 -0.171875 1.09375 -0.5q0.46875 -0.34375 0.734375 -0.84375q0.28125 -0.515625 0.28125 -1.203125q0 -0.734375 -0.3125 -1.265625q-0.3125 -0.53125 -0.84375 -0.875q-0.515625 -0.359375 -1.1875 -0.515625q-0.671875 -0.171875 -1.390625 -0.171875l-2.203125 0zm0 -6.234375l0 5.484375l2.5 0q1.34375 0 2.140625 -0.78125q0.8125 -0.796875 0.8125 -2.078125q0 -0.703125 -0.21875 -1.203125q-0.21875 -0.5 -0.625 -0.8125q-0.390625 -0.3125 -0.953125 -0.453125q-0.5625 -0.15625 -1.234375 -0.15625l-2.421875 0zm19.069458 11.78125l1.1875 0l0 -11.78125l-1.1875 0l0 -0.75l3.984375 0q1.359375 0 2.578125 0.46875q1.21875 0.453125 2.125 1.328125q0.921875 0.859375 1.453125 2.09375q0.53125 1.234375 0.53125 2.75q0 1.125 -0.390625 2.3125q-0.390625 1.171875 -1.265625 2.140625q-0.875 0.96875 -2.28125 1.59375q-1.390625 0.609375 -3.390625 0.609375l-3.34375 0l0 -0.765625zm1.96875 -11.78125l0 11.78125l1.65625 0q1.578125 0 2.75 -0.5q1.1875 -0.5 1.953125 -1.328125q0.78125 -0.828125 1.171875 -1.875q0.390625 -1.0625 0.390625 -2.1875q0 -1.34375 -0.46875 -2.4375q-0.453125 -1.09375 -1.265625 -1.859375q-0.8125 -0.765625 -1.890625 -1.171875q-1.0625 -0.421875 -2.28125 -0.421875l-2.015625 0zm15.418884 11.78125l1.359375 0l0 -11.78125l-1.359375 0l0 -0.75l9.25 0l0 2.921875l-0.765625 0l0 -2.171875l-6.34375 0l0 5.453125l6.359375 0l0 0.765625l-6.359375 0l0 5.5625l6.609375 0l0 -2.15625l0.765625 0l0 2.921875l-9.515625 0l0 -0.765625zm16.249573 -12.53125l3.8125 0l0 0.75l-1.40625 0q1.140625 2.75 2.28125 5.453125q1.15625 2.6875 2.3125 5.40625l0.171875 0.53125l0.171875 -0.53125q1.140625 -2.71875 2.28125 -5.40625q1.15625 -2.703125 2.296875 -5.453125l-1.3125 0l0 -0.75l3.828125 0l0 0.75l-1.703125 0q-1.375 3.3125 -2.78125 6.578125q-1.390625 3.265625 -2.78125 6.578125q-1.40625 -3.3125 -2.8125 -6.578125q-1.390625 -3.265625 -2.765625 -6.578125l-1.59375 0l0 -0.75zm21.081543 12.53125l1.359375 0l0 -11.78125l-1.359375 0l0 -0.75l9.25 0l0 2.921875l-0.765625 0l0 -2.171875l-6.34375 0l0 5.453125l6.359375 0l0 0.765625l-6.359375 0l0 5.5625l6.609375 0l0 -2.15625l0.765625 0l0 2.921875l-9.515625 0l0 -0.765625zm16.249573 0l1.296875 0l0 -11.78125l-1.296875 0l0 -0.75l3.65625 0l0 0.75l-1.578125 0l0 11.78125l6.609375 0l0 -2.15625l0.765625 0l0 2.921875l-9.453125 0l0 -0.765625zm16.193604 -5.859375q0 -1.40625 0.53125 -2.65625q0.53125 -1.25 1.453125 -2.171875q0.921875 -0.921875 2.15625 -1.453125q1.234375 -0.546875 2.640625 -0.546875q1.40625 0 2.640625 0.546875q1.25 0.53125 2.171875 1.453125q0.921875 0.921875 1.453125 2.171875q0.546875 1.25 0.546875 2.65625q0 1.40625 -0.546875 2.640625q-0.53125 1.234375 -1.453125 2.15625q-0.921875 0.921875 -2.171875 1.453125q-1.234375 0.53125 -2.640625 0.53125q-1.40625 0 -2.640625 -0.53125q-1.234375 -0.53125 -2.15625 -1.453125q-0.921875 -0.921875 -1.453125 -2.15625q-0.53125 -1.234375 -0.53125 -2.640625zm0.796875 0.015625q0 1.25 0.453125 2.34375q0.46875 1.09375 1.28125 1.90625q0.828125 0.796875 1.90625 1.28125q1.078125 0.46875 2.3125 0.46875q1.234375 0 2.34375 -0.46875q1.109375 -0.484375 1.921875 -1.296875q0.828125 -0.8125 1.296875 -1.90625q0.484375 -1.09375 0.484375 -2.34375q0 -1.265625 -0.484375 -2.359375q-0.46875 -1.109375 -1.28125 -1.921875q-0.8125 -0.828125 -1.921875 -1.296875q-1.09375 -0.484375 -2.328125 -0.484375q-1.234375 0 -2.328125 0.484375q-1.09375 0.484375 -1.921875 1.3125q-0.8125 0.828125 -1.28125 1.9375q-0.453125 1.09375 -0.453125 2.34375zm19.463806 5.84375l1.15625 0l0 -11.78125l-1.15625 0l0 -0.75l4.0 0q0.59375 0 1.296875 0.1875q0.703125 0.1875 1.3125 0.609375q0.625 0.421875 1.03125 1.09375q0.421875 0.65625 0.421875 1.578125q0 1.640625 -1.03125 2.609375q-1.03125 0.96875 -2.984375 0.96875l-2.109375 0l0 5.484375l1.875 0l0 0.765625l-3.8125 0l0 -0.765625zm1.9375 -6.265625l1.96875 0q0.984375 0 1.640625 -0.265625q0.65625 -0.265625 1.046875 -0.671875q0.390625 -0.421875 0.546875 -0.90625q0.15625 -0.484375 0.15625 -0.953125q0 -0.53125 -0.265625 -1.015625q-0.25 -0.5 -0.71875 -0.875q-0.453125 -0.390625 -1.078125 -0.609375q-0.609375 -0.21875 -1.3125 -0.21875l-1.984375 0l0 5.515625zm27.878601 -6.265625l1.9999847 0l0 0.75l-1.5468597 0l0 11.78125l1.5937347 0l0 0.765625l-3.8124847 0l0 -0.765625l1.421875 0l0 -10.15625q0 -0.015625 0 -0.125q0.015625 -0.125 0.03125 -0.25q0.015625 -0.125 0.015625 -0.234375q0 -0.109375 0 -0.15625q-0.0625 0.09375 -0.15625 0.21875q-0.078125 0.125 -0.1875 0.28125q-0.421875 0.5625 -1.140625 1.5q-0.703125 0.921875 -1.53125 2.0q-0.8125 1.0625 -1.65625 2.15625q-0.84375 1.078125 -1.53125 1.984375q-1.3125 -1.71875 -2.234375 -2.90625q-0.90625 -1.203125 -1.578125 -2.078125q-0.671875 -0.890625 -1.171875 -1.53125q-0.5 -0.65625 -0.984375 -1.265625l-0.21875 -0.359375q0 0.21875 0 0.40625q0.015625 0.171875 0.03125 0.359375l0 10.15625l1.484375 0l0 0.765625l-3.8125 0l0 -0.765625l1.53125 0l0 -11.78125l-1.53125 0l0 -0.75l1.984375 0q0.21875 0.28125 0.625 0.828125q0.421875 0.53125 0.953125 1.234375q0.546875 0.703125 1.171875 1.53125q0.640625 0.828125 1.296875 1.671875q0.65625 0.84375 1.28125 1.671875q0.640625 0.8125 1.171875 1.515625q1.640625 -2.109375 3.25 -4.21875q1.609375 -2.125 3.25 -4.234375zm8.653061 12.53125l1.359375 0l0 -11.78125l-1.359375 0l0 -0.75l9.25 0l0 2.921875l-0.765625 0l0 -2.171875l-6.34375 0l0 5.453125l6.359375 0l0 0.765625l-6.359375 0l0 5.5625l6.609375 0l0 -2.15625l0.765625 0l0 2.921875l-9.515625 0l0 -0.765625zm16.249573 0l1.53125 0l0 -11.78125l-1.53125 0l0 -0.75l2.046875 0l10.0 11.625l0.359375 0.5l-0.0625 -0.609375l0 -10.765625l-1.421875 0l0 -0.75l3.8125 0l0 0.75l-1.59375 0l0 13.15625l-10.5 -12.140625l-0.375 -0.421875l0.0625 0.53125l0 10.65625l1.484375 0l0 0.765625l-3.8125 0l0 -0.765625zm24.67694 0l1.5625 0l0 -11.78125l-4.109375 0l0 2.171875l-0.75 0l0 -2.921875l10.5 0l0 2.921875l-0.765625 0l0 -2.171875l-4.09375 0l0 11.78125l1.484375 0l0 0.765625l-3.828125 0l0 -0.765625z" fill-rule="nonzero"></path></g></svg>

